<svg xmlns="http://www.w3.org/2000/svg" version="1.1" xmlns:xlink="http://www.w3.org/1999/xlink" viewBox="0 0 13.716649859313552 3.6124906561444527"><g transform="matrix(1,0,0,1,0.560260416446086,1.2122453280722265)"><rect width="13.716649859313552" height="13.716649859313552" x="-0.560260416446086" y="-6.264324929656776" fill="#0e1425"></rect><g transform="matrix(-1,0,0,1,23.293614377983882,0)" clip-path="url(#SvgjsClipPath1002)"><g clip-path="url(#SvgjsClipPath1000c697cfba-d314-40b1-9512-872f8da67557)"><path d=" M 11.646807188991941 -0.5660515078004961 C 11.418414899462888 -0.5665451013241067 11.199180942312692 -0.4762897199695781 11.037334557811088 -0.3151406294519846 C 10.875488173309483 -0.15399153893439127 10.784287057700997 0.06485068355238766 10.783794528615461 0.2932429753793856 L 10.783794528615461 1.7540515078004963 L 12.50981984936842 1.7540515078004963 L 12.50981984936842 0.2932429753793856 C 12.509327320282871 0.06485068355234014 12.418126204674373 -0.15399153893443374 12.25627982017276 -0.31514062945201826 C 12.094433435671146 -0.4762897199696028 11.875199478520944 -0.5665451013241191 11.646807188991893 -0.5660515078004961 Z M 12.59612902642138 0.2932429753793856 C 12.59612902642138 -0.2310529981142419 12.171103162485569 -0.6560788620500546 11.646807188991941 -0.6560788620500546 C 11.122511215498314 -0.6560788620500546 10.6974853515625 -0.23105299811424201 10.6974853515625 0.2932429753793854 L 10.6974853515625 1.8399849116261402 L 12.59612902642138 1.8399849116261402 Z" fill="#000000" transform="matrix(1,0,0,1,0,0)" fill-rule="evenodd"></path></g><g clip-path="url(#SvgjsClipPath1000c697cfba-d314-40b1-9512-872f8da67557)"><path d=" M 12.2509318732861 1.7540515078004963 L 12.2509318732861 0.2932429753793856 C 12.249030571412746 -0.039051344849752256 11.979116837323671 -0.30742512081643036 11.64681707776108 -0.30742512081642964 C 11.314517318198487 -0.307425120816429 11.044603584109414 -0.039051344849749925 11.04270228223606 0.29324297537938526 L 11.04270228223606 1.7540515078004963 Z M 12.33722127280078 0.2932429753793857 C 12.33722127280078 -0.08806219417663597 12.028112358547963 -0.3971711084294544 11.646807188991941 -0.3971711084294544 C 11.26550201943592 -0.3971711084294544 10.9563931051831 -0.08806219417663597 10.9563931051831 0.2932429753793856 L 10.9563931051831 1.8399849116261402 L 12.33722127280078 1.8399849116261402 Z" fill="#000000" transform="matrix(1,0,0,1,0,0)" fill-rule="evenodd"></path></g><g clip-path="url(#SvgjsClipPath1000c697cfba-d314-40b1-9512-872f8da67557)"><path d=" M 11.99200434212722 1.7540515078004963 L 11.99200434212722 0.2932429753793856 C 11.990568974031634 0.1036099888035854 11.836435719007671 -0.04936101762300105 11.646797300222799 -0.04936101762300049 C 11.457158881437927 -0.049361017622999825 11.303025626413966 0.10360998880358763 11.301590258318381 0.2932429753793856 L 11.301590258318381 1.7540515078004963 Z M 12.078313519180181 0.2932429753793857 C 12.078313519180181 0.054928609760969915 11.885121554610356 -0.13826335480885443 11.646807188991941 -0.13826335480885443 C 11.408492823373525 -0.13826335480885443 11.215300858803701 0.05492860976096969 11.215300858803701 0.2932429753793857 L 11.215300858803701 1.8399849116261402 L 12.078313519180181 1.8399849116261402 Z" fill="#000000" transform="matrix(1,0,0,1,0,0)" fill-rule="evenodd"></path></g><g clip-path="url(#SvgjsClipPath1000c697cfba-d314-40b1-9512-872f8da67557)"><path d=" M 11.7331163660449 1.7540515078004963 L 11.7331163660449 0.2932429753793856 C 11.7331163660449 0.24557573312258996 11.694474431248736 0.20693379832642567 11.646807188991941 0.20693379832642567 C 11.599139946735145 0.20693379832642567 11.56049801193898 0.24557573312258996 11.56049801193898 0.2932429753793856 L 11.56049801193898 1.7540515078004963 Z M 11.81940576555958 0.2932429753793857 C 11.81940576555958 0.19791941369857557 11.74213075067275 0.1206443988117456 11.646807188991941 0.1206443988117456 C 11.55148362731113 0.1206443988117456 11.4742086124243 0.19791941369857557 11.4742086124243 0.2932429753793857 L 11.4742086124243 1.8399849116261402 L 11.81940576555958 1.8399849116261402 Z" fill="#000000" transform="matrix(1,0,0,1,0,0)" fill-rule="evenodd"></path></g></g><g><path d=" M 0.46125 1.18875 Q 0.40800000000000003 1.1684999999999999 0.34650000000000003 1.1204999999999998 L 0.321 1.188 L 0.084 1.188 L 0.084 0.831 L 0.3195 0.831 Q 0.342 0.8925 0.38925 0.9179999999999999 Q 0.4365 0.9435 0.5055000000000001 0.9435 Q 0.5475 0.9435 0.5775 0.92625 Q 0.6075 0.9089999999999999 0.6075 0.8805 Q 0.6075 0.8444999999999999 0.57675 0.8265 Q 0.546 0.8085 0.4905 0.7934999999999999 Q 0.34950000000000003 0.7545 0.25875 0.7094999999999999 Q 0.168 0.6645 0.1125 0.5804999999999999 Q 0.057 0.49649999999999994 0.057 0.35849999999999993 Q 0.057 0.2519999999999999 0.10275000000000001 0.17099999999999982 Q 0.1485 0.08999999999999986 0.234 0.04499999999999993 Q 0.3195 0 0.435 0 Q 0.5760000000000001 0 0.6585 0.08999999999999986 L 0.6960000000000001 0.020999999999999908 L 0.906 0.020999999999999908 L 0.906 0.37049999999999994 L 0.681 0.37049999999999994 Q 0.6495 0.3044999999999999 0.61125 0.2789999999999999 Q 0.5730000000000001 0.25349999999999995 0.507 0.25349999999999995 Q 0.456 0.25349999999999995 0.42825 0.27149999999999996 Q 0.4005 0.2895 0.4005 0.32099999999999995 Q 0.4005 0.3554999999999999 0.44025000000000003 0.37424999999999997 Q 0.48 0.3929999999999999 0.5535 0.4095 Q 0.684 0.4394999999999999 0.77475 0.4837499999999999 Q 0.8655 0.5279999999999999 0.92025 0.6097499999999999 Q 0.975 0.6915 0.975 0.8205 Q 0.975 0.9299999999999999 0.92925 1.0185 Q 0.8835000000000001 1.107 0.7987500000000001 1.158 Q 0.714 1.2089999999999999 0.6045 1.2089999999999999 Q 0.5145 1.2089999999999999 0.46125 1.18875 M 1.084517578125 1.188 L 1.084517578125 0.9299999999999999 L 1.201517578125 0.9299999999999999 L 1.201517578125 0.28049999999999997 L 1.084517578125 0.28049999999999997 L 1.084517578125 0.022499999999999964 L 1.669517578125 0.020999999999999908 L 1.669517578125 0.28049999999999997 L 1.576517578125 0.28049999999999997 L 1.576517578125 0.4724999999999999 L 1.857017578125 0.4724999999999999 L 1.857017578125 0.28049999999999997 L 1.764017578125 0.28049999999999997 L 1.764017578125 0.020999999999999908 L 2.3490175781250002 0.022499999999999964 L 2.3490175781250002 0.28049999999999997 L 2.2320175781250002 0.28049999999999997 L 2.2320175781250002 0.9299999999999999 L 2.3490175781250002 0.9299999999999999 L 2.3490175781250002 1.188 L 1.764017578125 1.188 L 1.764017578125 0.9299999999999999 L 1.857017578125 0.9299999999999999 L 1.857017578125 0.7229999999999999 L 1.576517578125 0.7229999999999999 L 1.576517578125 0.9299999999999999 L 1.669517578125 0.9299999999999999 L 1.669517578125 1.188 L 1.084517578125 1.188 M 2.426984619140625 1.188 L 2.426984619140625 0.9299999999999999 L 2.542484619140625 0.9299999999999999 L 2.743484619140625 0.28049999999999997 L 2.590484619140625 0.28049999999999997 L 2.590484619140625 0.022499999999999964 L 3.316484619140625 0.022499999999999964 L 3.575984619140625 0.9299999999999999 L 3.691484619140625 0.9299999999999999 L 3.691484619140625 1.188 L 3.035984619140625 1.188 L 3.035984619140625 0.9299999999999999 L 3.130484619140625 0.9299999999999999 L 3.098984619140625 0.8054999999999999 L 2.834984619140625 0.8054999999999999 L 2.801984619140625 0.9299999999999999 L 2.941484619140625 0.9299999999999999 L 2.941484619140625 1.188 L 2.426984619140625 1.188 M 2.872484619140625 0.6285 L 3.064484619140625 0.6285 L 2.978984619140625 0.27149999999999996 L 2.872484619140625 0.6285 M 3.751497802734375 1.188 L 3.751497802734375 0.9255 L 3.869997802734375 0.9255 L 3.869997802734375 0.2789999999999999 L 3.754497802734375 0.2789999999999999 L 3.754497802734375 0.020999999999999908 L 4.292997802734375 0.020999999999999908 L 4.657497802734375 0.714 L 4.657497802734375 0.28049999999999997 L 4.540497802734375 0.28049999999999997 L 4.540497802734375 0.022499999999999964 L 5.006997802734375 0.022499999999999964 L 5.006997802734375 0.28049999999999997 L 4.891497802734375 0.28049999999999997 L 4.891497802734375 1.188 L 4.447497802734375 1.188 L 4.100997802734375 0.5445 L 4.100997802734375 0.9255 L 4.217997802734375 0.9255 L 4.217997802734375 1.188 L 3.751497802734375 1.188 M 5.1419853515625 0.9299999999999999 L 5.2589853515625 0.9299999999999999 L 5.2589853515625 0.28049999999999997 L 5.1419853515625 0.28049999999999997 L 5.1419853515625 0.022499999999999964 L 5.7269853515625 0.022499999999999964 L 5.7269853515625 0.28049999999999997 L 5.6339853515625 0.28049999999999997 L 5.6339853515625 0.5459999999999999 L 5.8274853515625 0.28049999999999997 L 5.8274853515625 0.022499999999999964 L 6.2834853515625 0.022499999999999964 L 6.2834853515625 0.28049999999999997 L 6.1829853515625 0.28049999999999997 L 5.9504853515625005 0.5624999999999999 L 5.9504853515625005 0.573 Q 6.0689853515625 0.573 6.1364853515625 0.6134999999999999 Q 6.2039853515625 0.6539999999999999 6.2039853515625 0.7545 L 6.2039853515625 0.873 Q 6.2039853515625 0.8955 6.2167353515625 0.91275 Q 6.2294853515625 0.9299999999999999 6.2519853515625 0.9299999999999999 L 6.3359853515625 0.9299999999999999 L 6.3359853515625 1.188 L 6.0674853515625 1.188 Q 5.8214853515625 1.188 5.8214853515625 0.963 L 5.8214853515625 0.8354999999999999 Q 5.8214853515625 0.7979999999999999 5.7974853515625 0.762 Q 5.7734853515625 0.726 5.7404853515625 0.726 L 5.6339853515625 0.726 L 5.6339853515625 0.9299999999999999 L 5.7509853515625 0.9299999999999999 L 5.7509853515625 1.188 L 5.1419853515625 1.188 L 5.1419853515625 0.9299999999999999 M 6.47096484375 0.9299999999999999 L 6.58796484375 0.9299999999999999 L 6.58796484375 0.28049999999999997 L 6.47096484375 0.28049999999999997 L 6.47096484375 0.022499999999999964 L 7.05596484375 0.022499999999999964 L 7.05596484375 0.28049999999999997 L 6.96296484375 0.28049999999999997 L 6.96296484375 0.5459999999999999 L 7.15646484375 0.28049999999999997 L 7.15646484375 0.022499999999999964 L 7.61246484375 0.022499999999999964 L 7.61246484375 0.28049999999999997 L 7.51196484375 0.28049999999999997 L 7.2794648437500005 0.5624999999999999 L 7.2794648437500005 0.573 Q 7.39796484375 0.573 7.46546484375 0.6134999999999999 Q 7.53296484375 0.6539999999999999 7.53296484375 0.7545 L 7.53296484375 0.873 Q 7.53296484375 0.8955 7.54571484375 0.91275 Q 7.55846484375 0.9299999999999999 7.58096484375 0.9299999999999999 L 7.66496484375 0.9299999999999999 L 7.66496484375 1.188 L 7.39646484375 1.188 Q 7.15046484375 1.188 7.15046484375 0.963 L 7.15046484375 0.8354999999999999 Q 7.15046484375 0.7979999999999999 7.12646484375 0.762 Q 7.10246484375 0.726 7.06946484375 0.726 L 6.96296484375 0.726 L 6.96296484375 0.9299999999999999 L 7.07996484375 0.9299999999999999 L 7.07996484375 1.188 L 6.47096484375 1.188 L 6.47096484375 0.9299999999999999 M 7.7294443359375 1.188 L 7.7294443359375 0.9299999999999999 L 7.8449443359375 0.9299999999999999 L 8.0459443359375 0.28049999999999997 L 7.8929443359375 0.28049999999999997 L 7.8929443359375 0.022499999999999964 L 8.618944335937499 0.022499999999999964 L 8.8784443359375 0.9299999999999999 L 8.993944335937499 0.9299999999999999 L 8.993944335937499 1.188 L 8.3384443359375 1.188 L 8.3384443359375 0.9299999999999999 L 8.4329443359375 0.9299999999999999 L 8.4014443359375 0.8054999999999999 L 8.1374443359375 0.8054999999999999 L 8.104444335937501 0.9299999999999999 L 8.243944335937499 0.9299999999999999 L 8.243944335937499 1.188 L 7.7294443359375 1.188 M 8.1749443359375 0.6285 L 8.3669443359375 0.6285 L 8.2814443359375 0.27149999999999996 L 8.1749443359375 0.6285 M 9.08845751953125 0.9299999999999999 L 9.20545751953125 0.9299999999999999 L 9.20545751953125 0.28049999999999997 L 9.08845751953125 0.28049999999999997 L 9.08845751953125 0.022499999999999964 L 9.83695751953125 0.022499999999999964 Q 10.01845751953125 0.022499999999999964 10.10395751953125 0.09599999999999986 Q 10.18945751953125 0.16949999999999998 10.18945751953125 0.33899999999999997 Q 10.18945751953125 0.45299999999999996 10.12570751953125 0.5145 Q 10.06195751953125 0.576 9.94495751953125 0.597 Q 10.049957519531251 0.6134999999999999 10.09645751953125 0.67575 Q 10.142957519531251 0.738 10.142957519531251 0.831 L 10.142957519531251 0.9255 L 10.30645751953125 0.9255 L 10.30645751953125 1.188 L 10.07095751953125 1.188 Q 9.95695751953125 1.188 9.907457519531249 1.173 Q 9.85795751953125 1.158 9.83170751953125 1.0905 Q 9.80545751953125 1.023 9.80545751953125 0.8654999999999999 Q 9.80545751953125 0.7754999999999999 9.77620751953125 0.732 Q 9.74695751953125 0.6884999999999999 9.66895751953125 0.6884999999999999 L 9.580457519531251 0.6884999999999999 L 9.580457519531251 0.9299999999999999 L 9.69745751953125 0.9299999999999999 L 9.69745751953125 1.188 L 9.08845751953125 1.188 L 9.08845751953125 0.9299999999999999 M 9.68095751953125 0.5219999999999999 Q 9.76045751953125 0.5219999999999999 9.79945751953125 0.49349999999999994 Q 9.83845751953125 0.46499999999999997 9.83845751953125 0.3929999999999999 Q 9.83845751953125 0.3404999999999999 9.79870751953125 0.3104999999999999 Q 9.75895751953125 0.28049999999999997 9.69595751953125 0.28049999999999997 L 9.580457519531251 0.28049999999999997 L 9.580457519531251 0.5219999999999999 L 9.68095751953125 0.5219999999999999" fill="#ffffff" fill-rule="nonzero"></path></g><g></g></g><defs><clipPath id="SvgjsClipPath1002"><path d=" M 10.6974853515625 -0.6519849116261401 h 1.89864367485888 v 2.4919698232522802 h -1.89864367485888 Z"></path></clipPath><clipPath id="SvgjsClipPath1000c697cfba-d314-40b1-9512-872f8da67557"><path d=" M 10.6974853515625 -0.6519849116261401 L 12.59612902642138 -0.6519849116261401 L 12.59612902642138 1.8399849116261402 L 10.6974853515625 1.8399849116261402 Z"></path></clipPath></defs></svg>